<svg fill="none" xmlns="http://www.w3.org/2000/svg" viewBox="0 0 1280 640">
  <path fill="#111" d="M0 0h1280v640H0z"/>
  <path fill="#111" d="M840 170h300v300H840z"/>
  <path d="M942 202l47.5 21.5L1037 202v43l-47.5-21.5L942 245v-43z" fill="#fff"/>
  <g clip-path="url(#clip0)" fill="#fff">
    <circle cx="990" cy="331.4" r="8"/>
    <circle cx="990" cy="296.2" r="8"/>
    <circle cx="990" cy="261" r="8"/>
  </g>
  <path d="M840 170l150 244.97L1140 170v300H840V170zM99.66 345v-51.19h15.75c4.5 0 8.52 1.02 12.06 3.06a21.04 21.04 0 018.33 8.65c2 3.73 3 7.97 3 12.73v2.35c0 4.76-1 8.99-2.96 12.7a20.9 20.9 0 01-8.26 8.6 24.1 24.1 0 01-12.06 3.1H99.66zm10.55-42.64v34.17h5.1c4.12 0 7.27-1.35 9.45-4.05 2.18-2.7 3.3-6.55 3.34-11.56v-2.7c0-5.21-1.07-9.15-3.23-11.82-2.16-2.7-5.3-4.04-9.46-4.04h-5.2zM169.5 345h-10.2v-38.04h10.2V345zm-10.8-47.88c0-1.53.5-2.78 1.51-3.76a5.8 5.8 0 014.19-1.48c1.73 0 3.12.5 4.15 1.48a4.98 4.98 0 011.54 3.76c0 1.54-.53 2.81-1.58 3.8a5.71 5.71 0 01-4.11 1.47c-1.71 0-3.1-.5-4.15-1.48a5.02 5.02 0 01-1.55-3.8zm52.76 37.37c0-1.24-.62-2.22-1.86-2.92-1.22-.73-3.2-1.37-5.91-1.93-9.05-1.9-13.57-5.75-13.57-11.53 0-3.38 1.4-6.2 4.18-8.44 2.81-2.28 6.48-3.41 11-3.41 4.84 0 8.69 1.13 11.57 3.4a10.73 10.73 0 014.36 8.87h-10.16c0-1.46-.47-2.65-1.4-3.59-.94-.96-2.4-1.44-4.4-1.44-1.7 0-3.03.39-3.97 1.16a3.66 3.66 0 00-1.4 2.95c0 1.13.52 2.04 1.58 2.75 1.07.68 2.88 1.27 5.4 1.79 2.54.5 4.67 1.05 6.4 1.69 5.37 1.97 8.06 5.38 8.06 10.23 0 3.47-1.49 6.28-4.47 8.43-2.97 2.14-6.82 3.2-11.53 3.2-3.19 0-6.02-.56-8.5-1.68a14.47 14.47 0 01-5.8-4.68c-1.41-2-2.12-4.14-2.12-6.43h9.64a5.3 5.3 0 002 4.14c1.24.97 2.9 1.45 5 1.45 1.94 0 3.4-.37 4.39-1.1 1-.74 1.5-1.72 1.5-2.91zm45.23 3.02c1.88 0 3.4-.51 4.57-1.55a5.42 5.42 0 001.83-4.1h9.53a13.11 13.11 0 01-2.11 7.1 14.06 14.06 0 01-5.7 4.99 17.8 17.8 0 01-7.94 1.75c-5.44 0-9.73-1.72-12.87-5.16-3.14-3.47-4.71-8.25-4.71-14.35v-.67c0-5.86 1.56-10.53 4.68-14.02 3.11-3.5 7.39-5.24 12.83-5.24 4.76 0 8.56 1.36 11.42 4.08 2.89 2.7 4.35 6.29 4.4 10.79h-9.53a6.86 6.86 0 00-1.83-4.78 6.08 6.08 0 00-4.64-1.87c-2.37 0-4.16.87-5.38 2.6-1.2 1.72-1.79 4.5-1.79 8.37v1.06c0 3.91.6 6.72 1.8 8.44 1.19 1.7 3 2.56 5.44 2.56zm33.1-11.88c0-3.77.73-7.14 2.19-10.1a15.99 15.99 0 016.25-6.85 18.4 18.4 0 019.53-2.42c5.13 0 9.32 1.57 12.55 4.7 3.26 3.15 5.08 7.42 5.45 12.8l.07 2.6c0 5.84-1.63 10.53-4.88 14.07-3.26 3.51-7.63 5.27-13.12 5.27-5.48 0-9.86-1.75-13.15-5.27-3.25-3.52-4.88-8.3-4.88-14.34v-.46zm10.17.74c0 3.6.68 6.37 2.04 8.3a6.75 6.75 0 005.83 2.84c2.46 0 4.39-.94 5.77-2.81 1.38-1.9 2.07-4.92 2.07-9.07 0-3.54-.69-6.28-2.07-8.23a6.75 6.75 0 00-5.84-2.92c-2.48 0-4.4.98-5.76 2.92-1.36 1.92-2.04 4.91-2.04 8.97zm66.46-9.88c-1.38-.19-2.6-.28-3.65-.28-3.84 0-6.36 1.3-7.56 3.9V345h-10.16v-38.04h9.6l.28 4.54c2.04-3.5 4.86-5.24 8.47-5.24 1.13 0 2.18.15 3.17.45l-.14 9.78zm15.6 9.2c0-5.92 1.33-10.64 3.97-14.16 2.68-3.51 6.32-5.27 10.94-5.27 3.7 0 6.76 1.38 9.17 4.15V291h10.2v54h-9.18l-.49-4.04a11.96 11.96 0 01-9.77 4.74c-4.48 0-8.08-1.75-10.8-5.27-2.7-3.54-4.04-8.45-4.04-14.73zm10.16.75c0 3.56.62 6.29 1.87 8.19a6.07 6.07 0 005.4 2.85c3.15 0 5.37-1.33 6.65-3.98v-15c-1.26-2.66-3.45-3.98-6.57-3.98-4.9 0-7.35 3.97-7.35 11.92zM468.7 345v-51.19h17.93c6.21 0 10.92 1.2 14.13 3.59 3.22 2.37 4.82 5.85 4.82 10.44 0 2.5-.64 4.72-1.93 6.64a11.2 11.2 0 01-5.38 4.19c2.62.65 4.69 1.98 6.19 3.97 1.52 2 2.28 4.43 2.28 7.31 0 4.93-1.57 8.65-4.71 11.18-3.14 2.53-7.62 3.82-13.43 3.87h-19.9zm10.55-22.29v13.82h9.03c2.49 0 4.42-.59 5.8-1.76a6.12 6.12 0 002.11-4.92c0-4.69-2.42-7.07-7.27-7.14h-9.67zm0-7.45h7.8c5.32-.1 7.98-2.22 7.98-6.37 0-2.32-.68-3.98-2.03-4.99-1.34-1.03-3.46-1.54-6.37-1.54h-7.38v12.9zm70.5 25.87c-2.5 3.05-5.97 4.57-10.4 4.57-4.08 0-7.2-1.17-9.35-3.51-2.13-2.35-3.22-5.78-3.27-10.3v-24.93h10.16v24.58c0 3.96 1.8 5.94 5.42 5.94 3.44 0 5.8-1.2 7.1-3.59v-26.93h10.2V345h-9.57l-.28-3.87zm42.64-43.52v9.35h6.5v7.45h-6.5v18.99c0 1.4.27 2.41.81 3.02.54.61 1.57.92 3.1.92 1.12 0 2.12-.09 2.98-.25v7.7c-1.99.6-4.04.91-6.15.91-7.13 0-10.76-3.6-10.9-10.79v-20.5h-5.55v-7.45h5.55v-9.35h10.16zM628.24 345h-10.2v-54h10.2v54zm38.87.7c-5.58 0-10.13-1.7-13.64-5.13-3.5-3.42-5.24-7.98-5.24-13.68v-.98c0-3.82.74-7.23 2.21-10.23a16.16 16.16 0 016.26-6.96 17.6 17.6 0 019.28-2.46c5.2 0 9.3 1.64 12.27 4.92 3 3.28 4.5 7.93 4.5 13.96v4.15h-24.22a9.48 9.48 0 002.95 5.97 9.05 9.05 0 006.3 2.25c3.91 0 6.97-1.42 9.17-4.25l5 5.59a15.39 15.39 0 01-6.2 5.06c-2.6 1.2-5.48 1.8-8.64 1.8zm-1.16-31.22c-2.02 0-3.66.68-4.92 2.04-1.25 1.36-2.04 3.3-2.4 5.84h14.14v-.8c-.05-2.26-.66-4-1.83-5.21-1.17-1.25-2.84-1.87-5-1.87zm56.94 2c-1.38-.18-2.6-.27-3.66-.27-3.84 0-6.36 1.3-7.56 3.9V345h-10.16v-38.04h9.6l.28 4.54c2.04-3.5 4.87-5.24 8.48-5.24 1.12 0 2.17.15 3.16.45l-.14 9.78z"
        fill="#fff"/>
  <defs>
    <clipPath id="clip0">
      <path fill="#fff" transform="translate(982 253)" d="M0 0h16v86.4H0z"/>
    </clipPath>
  </defs>
</svg>
